<?xml version="1.0"?>
<svg xmlns="http://www.w3.org/2000/svg" id="Layer_1" height="512px" viewBox="0 0 128 128" width="512px" data-name="Layer 1"><g><path d="m102.421 37.258a89.009 89.009 0 0 0 -44.308-12.058 80.615 80.615 0 0 0 -19.562 2.4c-20.65 5.171-28.206 21.5-26.558 35.443-.051 1.817-.26 19.528 10.543 30.781 5.706 5.943 13.432 8.966 22.964 8.984h.113c14.4 0 22.911-5.191 29.753-9.364 5.564-3.395 9.972-6.073 16-5.56 6.352.539 11.915-1.106 16.084-4.768 5.221-4.584 8.1-12.04 8.545-22.159 0-.057-.006-.11-.009-.166 1.794-10.411-5.746-18.951-13.565-23.533zm-63.021-6.267a77.107 77.107 0 0 1 18.713-2.291 85.3 85.3 0 0 1 42.5 11.561c13.5 7.913 12.407 17.89 11.751 20.76a15.476 15.476 0 0 1 -15.251 11.97 19.032 19.032 0 0 1 -5.667-.894 6.907 6.907 0 0 0 -2.12-.312c-3.671 0-9.114 2.448-16.673 5.848-4.561 2.051-10.235 4.6-17.024 7.286a34.843 34.843 0 0 1 -12.8 2.587c-15.947-.006-25.829-12.448-27.345-24.74-1.535-12.452 5.266-27.105 23.916-31.775zm65.737 49.491c-3.436 3.018-8.1 4.369-13.478 3.911-7.169-.617-12.492 2.628-18.117 6.059-6.801 4.148-14.509 8.848-27.926 8.848h-.109c-8.536-.016-15.41-2.672-20.432-7.894a33.106 33.106 0 0 1 -7.507-13.645 29.97 29.97 0 0 0 25.267 13.239 38.325 38.325 0 0 0 14.086-2.833c6.864-2.712 12.58-5.283 17.2-7.359 6.868-3.089 12.293-5.529 15.213-5.529a3.475 3.475 0 0 1 1.077.153 22.526 22.526 0 0 0 6.711 1.053 19.182 19.182 0 0 0 13.859-5.831 20.343 20.343 0 0 1 -5.842 9.828z" data-original="#000000" class="active-path" data-old_color="#000000" fill="#E40C2B"/><path d="m27.707 77.914a22.71 22.71 0 0 0 15.146 5.512 30.786 30.786 0 0 0 11.293-2.276c6.714-2.653 12.113-5.082 16.877-7.224 10.536-4.739 16.341-7.349 21.634-5.7 7.612 2.376 13.008-1.2 14.98-5.8 3.232-7.529-2.344-14.9-8.908-18.582-1.656-1.065-26.9-16.806-58.344-8.932-10.78 2.7-18.223 9.515-20.417 18.7a24.817 24.817 0 0 0 7.739 24.302zm-4.335-23.483c1.908-7.987 8.252-13.712 17.862-16.118a68.838 68.838 0 0 1 16.766-2.049 78.682 78.682 0 0 1 38.873 10.554c.032.021.067.042.1.061 7.543 4.205 9.175 10.148 7.447 14.172-1.254 2.922-4.82 5.679-10.72 3.837-6.562-2.048-13.168.923-24.113 5.846-4.73 2.126-10.087 4.537-16.729 7.161-8.786 3.472-16.9 2.54-22.858-2.625a21.569 21.569 0 0 1 -6.628-20.839z" data-original="#000000" class="active-path" data-old_color="#000000" fill="#E40C2B"/><path d="m40.562 69.375a9.568 9.568 0 1 0 -9.568-9.568 9.578 9.578 0 0 0 9.568 9.568zm0-15.636a6.068 6.068 0 1 1 -6.068 6.068 6.074 6.074 0 0 1 6.068-6.068z" data-original="#000000" class="active-path" data-old_color="#000000" fill="#E40C2B"/></g> </svg>
