<svg xmlns="http://www.w3.org/2000/svg" viewBox="0 0 1331.5 241.55"><defs><style>.cls-1{fill:#fafafa;}</style></defs><title>Ativo 5</title><g id="Camada_2" data-name="Camada 2"><g id="Texto"><path class="cls-1" d="M63.66,82.44h0a9,9,0,0,1-9-9l.09-53.69a9,9,0,0,0-9-9h-.19a9,9,0,0,0-9,9l.09,53.69a9,9,0,0,1-9,9h0a9,9,0,0,1-9-9L18.3,19.66a9,9,0,0,0-9-9H9a9,9,0,0,0-9,9V74.57a36.32,36.32,0,0,0,27.46,35.17,9,9,0,0,1,6.76,8.72v65.72a9,9,0,0,0,9,9H48a9,9,0,0,0,9-9V118.46a9,9,0,0,1,6.76-8.72A36.32,36.32,0,0,0,91.25,74.57V19.71a9,9,0,0,0-9-9H82a9,9,0,0,0-9,9l-.28,53.81A9,9,0,0,1,63.66,82.44Zm55-35.25v64a9,9,0,0,0,9,9h4.78a9,9,0,0,1,9,9v55a9,9,0,0,0,9,9h4.78a9,9,0,0,0,9-9V20.79A9,9,0,0,0,153.31,12C133.4,16.71,118.63,33.54,118.63,47.19Z"/><path class="cls-1" d="M377,184.91a8.09,8.09,0,0,1-2.92,6.35,10.32,10.32,0,0,1-7,2.54q-6.35,0-8.89-6.09l-18-41.15H244.39L226.1,187.71q-2.53,6.09-8.89,6.09a10.45,10.45,0,0,1-7.11-2.67,8.28,8.28,0,0,1-3-6.47,9,9,0,0,1,1-4.07L280.71,19.05a10.91,10.91,0,0,1,4.58-5.33,12.82,12.82,0,0,1,6.6-1.78,12.67,12.67,0,0,1,6.86,1.9,11.92,11.92,0,0,1,4.57,5.21L376,180.59A9.53,9.53,0,0,1,377,184.91ZM252,129.29h80.52L292.14,38.1Z"/><path class="cls-1" d="M439.59,191.13a9.6,9.6,0,0,1-2.92-7.49V22.35a9.63,9.63,0,0,1,2.92-7.49,10.65,10.65,0,0,1,7.49-2.67,10.33,10.33,0,0,1,7.24,2.67,9.63,9.63,0,0,1,2.92,7.49V183.64a9.6,9.6,0,0,1-2.92,7.49,10.33,10.33,0,0,1-7.24,2.67A10.65,10.65,0,0,1,439.59,191.13Z"/><path class="cls-1" d="M707.68,114.81v68.83q0,4.83-2.79,7.49a10.22,10.22,0,0,1-7.37,2.67,10.69,10.69,0,0,1-7.49-2.67,9.6,9.6,0,0,1-2.92-7.49V115.32q0-17-6.1-24.64t-19-7.62q-15.5,0-24.38,10.41t-8.89,28.2v62a9.64,9.64,0,0,1-2.92,7.49,10.69,10.69,0,0,1-7.49,2.67,10.22,10.22,0,0,1-7.37-2.67c-1.87-1.77-2.79-4.27-2.79-7.49V115.32q0-17-6.1-24.64t-19.3-7.62q-15.24,0-24.26,10.41t-9,28.2v62q0,4.83-2.79,7.49a10.24,10.24,0,0,1-7.37,2.67,10.65,10.65,0,0,1-7.49-2.67,9.6,9.6,0,0,1-2.92-7.49V76.45a9.71,9.71,0,0,1,2.92-7.36,10.39,10.39,0,0,1,7.49-2.8A9.87,9.87,0,0,1,546.39,69a9.51,9.51,0,0,1,2.8,7.24V88.39a40.19,40.19,0,0,1,15.49-16.76,44.13,44.13,0,0,1,22.86-5.84q29,0,37.85,24.38a41.1,41.1,0,0,1,16.25-17.78,47.18,47.18,0,0,1,24.9-6.6Q707.69,65.79,707.68,114.81Z"/><path class="cls-1" d="M799,186.44A52.48,52.48,0,0,1,778.42,164q-7.24-14.61-7.24-33.91t7.24-33.91A52.48,52.48,0,0,1,799,73.66q13.34-7.87,30.87-7.87t31,7.87a52.15,52.15,0,0,1,20.7,22.48q7.25,14.61,7.24,33.91T881.54,164a52.15,52.15,0,0,1-20.7,22.48q-13.46,7.88-31,7.87T799,186.44Zm58.93-21.21q9.78-12.06,9.78-35.18,0-22.61-9.91-34.93T829.86,82.8q-18,0-27.94,12.32T792,130.05q0,22.86,9.78,35t28.07,12.19Q848.15,177.29,857.92,165.23Z"/><path class="cls-1" d="M1047.66,165.86a8.82,8.82,0,0,1,1.9,5.84,10.54,10.54,0,0,1-1.77,6,24.84,24.84,0,0,1-6.61,6,58,58,0,0,1-15.11,7.11,71.53,71.53,0,0,1-17.65,3.31l-1,9.65a27,27,0,0,1,6.6-.76,20.47,20.47,0,0,1,13.34,4.44q5.46,4.44,5.46,13.08,0,9.39-7.88,15.24t-22.09,5.84a48.76,48.76,0,0,1-17.27-3,6.54,6.54,0,0,1-3.18-2.42,5.94,5.94,0,0,1-1.14-3.43,5.62,5.62,0,0,1,1.52-3.93,5.24,5.24,0,0,1,4.07-1.65,6.63,6.63,0,0,1,2,.25,49.93,49.93,0,0,0,14.22,2q7.11,0,10.8-2.28a7.34,7.34,0,0,0,3.68-6.61,6.4,6.4,0,0,0-2-5.08,8.64,8.64,0,0,0-5.84-1.78,29.14,29.14,0,0,0-7.12,1.15,31.72,31.72,0,0,1-5.33,1.14,5.55,5.55,0,0,1-3.68-1.4,3.65,3.65,0,0,1-1.4-3.43l2-17.52q-22.35-3-35.56-19.94t-13.21-43.05q0-19.05,7.5-33.79a55.35,55.35,0,0,1,21-22.86q13.46-8.11,31-8.12A70.78,70.78,0,0,1,1024,68.45a52.8,52.8,0,0,1,16.63,7.75,22.47,22.47,0,0,1,6.48,6,11.63,11.63,0,0,1,1.91,6.48,8.83,8.83,0,0,1-1.91,5.84,6.15,6.15,0,0,1-5,2.28,8.49,8.49,0,0,1-3.81-1,25.08,25.08,0,0,1-3.43-2,16.77,16.77,0,0,0-1.91-1.27,81,81,0,0,0-12.57-6.86,37.36,37.36,0,0,0-14.6-2.54q-18.55,0-28.83,12.57t-10.29,34.93q0,22.35,10.29,34.54t28.83,12.19a39.1,39.1,0,0,0,14.85-2.54,67.84,67.84,0,0,0,12.58-6.86q2.79-1.77,5.33-3a10,10,0,0,1,4.32-1.27A5.9,5.9,0,0,1,1047.66,165.86Z"/><path class="cls-1" d="M1204.75,114.55v69.09a10.21,10.21,0,0,1-2.66,7.37,9.54,9.54,0,0,1-7.24,2.79,9.59,9.59,0,0,1-10.16-10.16V171.45A36.38,36.38,0,0,1,1170,188.34a43.45,43.45,0,0,1-22.86,6,50,50,0,0,1-22-4.83A39.09,39.09,0,0,1,1109.25,176a33.2,33.2,0,0,1-5.84-19.05q0-14,7.11-21.72t23.37-11.17q16.24-3.43,45.21-3.43h5.59v-8.38q0-15.24-6.22-22.35t-20.2-7.12q-17.26,0-35,9.4-6.85,4.32-9.65,4.32a6.5,6.5,0,0,1-5.08-2.29,8.41,8.41,0,0,1-2-5.84,9.54,9.54,0,0,1,2.16-6.22,25,25,0,0,1,7-5.46,81.81,81.81,0,0,1,20.19-8,89.46,89.46,0,0,1,22.48-2.92Q1204.76,65.79,1204.75,114.55Zm-29.84,53.22q9.78-10.29,9.78-26.55v-7.36h-4.57q-22.36,0-34,1.9t-16.64,6.35q-4.95,4.45-5,13.08a21,21,0,0,0,7.24,16.39q7.24,6.46,18.16,6.47Q1165.13,178.05,1174.91,167.77Z"/><path class="cls-1" d="M1278.54,191.13a9.6,9.6,0,0,1-2.92-7.49V76.45a9.63,9.63,0,0,1,2.92-7.49,10.69,10.69,0,0,1,7.49-2.67A10.22,10.22,0,0,1,1293.4,69a9.88,9.88,0,0,1,2.79,7.49V183.64q0,5.09-2.79,7.62a10.55,10.55,0,0,1-7.37,2.54A10.69,10.69,0,0,1,1278.54,191.13Zm8-137.28a6.14,6.14,0,0,1-4.32-1.65,5.21,5.21,0,0,1-1.77-3.94,5.75,5.75,0,0,1,1.52-3.81l29.46-38.61Q1316,0,1321.85,0a9.58,9.58,0,0,1,6.86,2.67,8.92,8.92,0,0,1,2.79,6.73q0,5.32-5.08,9.65l-35.81,33.27A6.76,6.76,0,0,1,1286.54,53.85Z"/></g></g></svg>